<svg width="1200" height="280" viewBox="0 0 1200 280" fill="none" xmlns="http://www.w3.org/2000/svg">
  <rect width="1200" height="280" fill="#EEF5FF"/>
  <rect y="190" width="1200" height="90" fill="#E2EEFF"/>
  <rect x="20" y="24" width="176" height="170" rx="8" fill="#DBEAFE"/>
  <rect x="44" y="44" width="128" height="128" fill="#F8FBFF"/>
  <rect x="230" y="20" width="188" height="174" rx="8" fill="#D9E9FF"/>
  <rect x="256" y="36" width="138" height="138" fill="#F7FAFF"/>
  <rect x="442" y="22" width="164" height="172" rx="8" fill="#D7E7FF"/>
  <rect x="464" y="40" width="120" height="134" fill="#F7FAFF"/>
  <rect x="634" y="18" width="188" height="176" rx="8" fill="#D8E8FF"/>
  <rect x="660" y="34" width="140" height="142" fill="#F8FBFF"/>
  <rect x="846" y="20" width="170" height="174" rx="8" fill="#DAEAFF"/>
  <rect x="868" y="38" width="126" height="136" fill="#F8FBFF"/>
  <rect x="1034" y="24" width="154" height="170" rx="8" fill="#DCEBFF"/>
  <rect x="1054" y="42" width="114" height="130" fill="#F8FBFF"/>
  <rect x="744" y="162" width="300" height="74" rx="12" fill="#FFF9ED"/>
  <rect x="774" y="135" width="78" height="24" rx="4" fill="#3B82F6"/>
  <rect x="766" y="149" width="94" height="20" rx="4" fill="#F8FAFC"/>
  <rect x="880" y="150" width="6" height="42" fill="#9CA3AF"/>
  <circle cx="883" cy="146" r="10" fill="#F8DFA8"/>
  <rect x="574" y="104" width="52" height="88" rx="6" fill="#D3E5FF"/>
  <rect x="588" y="122" width="24" height="70" fill="#F8FBFF"/>
  <rect x="538" y="162" width="70" height="24" rx="10" fill="#BED8FF"/>
  <rect x="525" y="186" width="96" height="8" rx="4" fill="#C8DEFF"/>
  <rect x="76" y="108" width="10" height="84" fill="#DBEAFE"/>
  <ellipse cx="90" cy="100" rx="26" ry="34" fill="#D6E7FF"/>
  <ellipse cx="112" cy="96" rx="24" ry="30" fill="#DFECFF"/>
  <rect x="142" y="108" width="4" height="20" fill="#D8E7FF"/>
  <polygon points="132,108 156,108 144,92" fill="#F8DFAD"/>
  <rect x="358" y="126" width="6" height="66" fill="#C7DFFF"/>
  <path d="M352 126C352 112 370 112 370 126H352Z" fill="#F9E5B8"/>
  <rect x="958" y="146" width="6" height="46" fill="#9FB9DE"/>
  <circle cx="961" cy="142" r="10" fill="#F5E1B3"/>
  <rect x="1024" y="170" width="66" height="14" rx="4" fill="#FFFFFF"/>
  <rect x="1100" y="170" width="52" height="14" rx="4" fill="#FFFFFF"/>
  <g opacity="0.34" stroke="#C8DCF8">
    <line x1="40" y1="0" x2="40" y2="280"/>
    <line x1="100" y1="0" x2="100" y2="280"/>
    <line x1="160" y1="0" x2="160" y2="280"/>
    <line x1="220" y1="0" x2="220" y2="280"/>
    <line x1="280" y1="0" x2="280" y2="280"/>
    <line x1="340" y1="0" x2="340" y2="280"/>
    <line x1="400" y1="0" x2="400" y2="280"/>
    <line x1="460" y1="0" x2="460" y2="280"/>
    <line x1="520" y1="0" x2="520" y2="280"/>
    <line x1="580" y1="0" x2="580" y2="280"/>
    <line x1="640" y1="0" x2="640" y2="280"/>
    <line x1="700" y1="0" x2="700" y2="280"/>
    <line x1="760" y1="0" x2="760" y2="280"/>
    <line x1="820" y1="0" x2="820" y2="280"/>
    <line x1="880" y1="0" x2="880" y2="280"/>
    <line x1="940" y1="0" x2="940" y2="280"/>
    <line x1="1000" y1="0" x2="1000" y2="280"/>
    <line x1="1060" y1="0" x2="1060" y2="280"/>
    <line x1="1120" y1="0" x2="1120" y2="280"/>
  </g>
</svg>
